# Blender v2.79 (sub 0) OBJ File: 'cockpit.blend'
# www.blender.org
mtllib SteeringWheel.mtl
o Handles_Circle
v -0.112967 0.733176 -1.168322
v -0.122275 0.700332 -1.134988
v -0.122274 0.368004 -1.354740
v -0.112965 0.382648 -1.399185
v -0.086457 0.395063 -1.436864
v -0.046785 0.403359 -1.462040
v 0.000011 0.406272 -1.470881
v 0.046807 0.403359 -1.462040
v 0.086478 0.395063 -1.436863
v 0.112986 0.382648 -1.399184
v 0.122294 0.368004 -1.354738
v 0.112985 0.353359 -1.310293
v 0.086477 0.340944 -1.272614
v 0.046805 0.332649 -1.247438
v 0.000009 0.329736 -1.238597
v -0.046787 0.332649 -1.247439
v -0.086458 0.340944 -1.272615
v -0.112966 0.353359 -1.310295
v -0.086459 0.761020 -1.196580
v -0.046787 0.779625 -1.215462
v 0.000009 0.786158 -1.222092
v 0.046805 0.779625 -1.215461
v 0.086476 0.761020 -1.196579
v 0.112984 0.733176 -1.168320
v 0.122292 0.700332 -1.134987
v 0.112984 0.667487 -1.101653
v 0.086476 0.639643 -1.073395
v 0.046804 0.621039 -1.054513
v 0.000008 0.614505 -1.047883
v -0.046788 0.621039 -1.054514
v -0.086460 0.639643 -1.073396
v -0.112967 0.667487 -1.101655
v -0.112969 0.959360 -0.827783
v -0.122278 0.915749 -0.810813
v -0.086461 0.996331 -0.842169
v -0.046790 1.021034 -0.851781
v 0.000006 1.029709 -0.855156
v 0.046802 1.021034 -0.851780
v 0.086474 0.996331 -0.842167
v 0.112982 0.959360 -0.827781
v 0.122290 0.915749 -0.810811
v 0.112981 0.872138 -0.793842
v 0.086474 0.835167 -0.779455
v 0.046802 0.810463 -0.769843
v 0.000006 0.801789 -0.766468
v -0.046790 0.810463 -0.769844
v -0.086462 0.835167 -0.779457
v -0.112970 0.872138 -0.793843
v -0.112984 0.733176 1.168320
v -0.122292 0.700332 1.134986
v -0.122294 0.368004 1.354738
v -0.112986 0.382648 1.399184
v -0.086478 0.395063 1.436863
v -0.046807 0.403359 1.462040
v -0.000011 0.406272 1.470881
v 0.046785 0.403359 1.462040
v 0.086457 0.395063 1.436864
v 0.112965 0.382648 1.399185
v 0.122274 0.368004 1.354740
v 0.112966 0.353359 1.310295
v 0.086458 0.340944 1.272615
v 0.046787 0.332649 1.247439
v -0.000009 0.329736 1.238597
v -0.046805 0.332649 1.247438
v -0.086477 0.340944 1.272614
v -0.112985 0.353359 1.310293
v -0.086476 0.761020 1.196579
v -0.046805 0.779625 1.215461
v -0.000009 0.786158 1.222092
v 0.046787 0.779625 1.215462
v 0.086459 0.761020 1.196580
v 0.112967 0.733176 1.168322
v 0.122276 0.700332 1.134988
v 0.112967 0.667487 1.101655
v 0.086460 0.639643 1.073396
v 0.046788 0.621039 1.054514
v -0.000008 0.614505 1.047883
v -0.046804 0.621039 1.054513
v -0.086476 0.639643 1.073395
v -0.112984 0.667487 1.101653
v -0.112981 0.959360 0.827781
v -0.122290 0.915749 0.810811
v -0.086474 0.996331 0.842167
v -0.046802 1.021034 0.851780
v -0.000006 1.029709 0.855156
v 0.046790 1.021034 0.851781
v 0.086462 0.996331 0.842169
v 0.112969 0.959360 0.827783
v 0.122278 0.915749 0.810813
v 0.112970 0.872138 0.793843
v 0.086462 0.835167 0.779457
v 0.046790 0.810463 0.769844
v -0.000006 0.801789 0.766468
v -0.046802 0.810463 0.769843
v -0.086473 0.835167 0.779455
v -0.112981 0.872138 0.793841
v -0.112967 -0.733176 -1.168322
v -0.122275 -0.700332 -1.134988
v -0.122274 -0.368004 -1.354740
v -0.122273 -0.000000 -1.427497
v -0.112965 -0.382648 -1.399185
v -0.112965 -0.000000 -1.474293
v -0.086457 -0.395063 -1.436864
v -0.086457 -0.000000 -1.513965
v -0.046785 -0.403359 -1.462040
v -0.046785 -0.000000 -1.540472
v 0.000011 -0.406272 -1.470881
v 0.000011 -0.000000 -1.549780
v 0.046807 -0.403359 -1.462040
v 0.046807 0.000000 -1.540472
v 0.086478 -0.395063 -1.436863
v 0.086479 0.000000 -1.513964
v 0.112986 -0.382648 -1.399184
v 0.112986 0.000000 -1.474292
v 0.122294 -0.368004 -1.354738
v 0.122294 0.000000 -1.427495
v 0.112985 -0.353359 -1.310293
v 0.112986 0.000000 -1.380700
v 0.086477 -0.340944 -1.272614
v 0.086477 0.000000 -1.341028
v 0.046805 -0.332649 -1.247438
v 0.046806 0.000000 -1.314521
v 0.000009 -0.329736 -1.238597
v 0.000010 -0.000000 -1.305213
v -0.046787 -0.332649 -1.247439
v -0.046786 -0.000000 -1.314521
v -0.086458 -0.340944 -1.272615
v -0.086458 -0.000000 -1.341030
v -0.112966 -0.353359 -1.310295
v -0.112965 -0.000000 -1.380701
v -0.086459 -0.761020 -1.196580
v -0.046787 -0.779625 -1.215462
v 0.000009 -0.786158 -1.222092
v 0.046805 -0.779625 -1.215461
v 0.086477 -0.761020 -1.196579
v 0.112984 -0.733176 -1.168320
v 0.122292 -0.700332 -1.134987
v 0.112984 -0.667487 -1.101653
v 0.086476 -0.639643 -1.073395
v 0.046804 -0.621039 -1.054513
v 0.000008 -0.614505 -1.047883
v -0.046788 -0.621039 -1.054514
v -0.086460 -0.639643 -1.073396
v -0.112967 -0.667487 -1.101655
v -0.112969 -0.959360 -0.827783
v -0.122278 -0.915749 -0.810813
v -0.086461 -0.996331 -0.842169
v -0.046790 -1.021034 -0.851781
v 0.000006 -1.029709 -0.855156
v 0.046802 -1.021034 -0.851780
v 0.086474 -0.996331 -0.842167
v 0.112982 -0.959360 -0.827781
v 0.122290 -0.915749 -0.810811
v 0.112982 -0.872138 -0.793842
v 0.086474 -0.835167 -0.779455
v 0.046802 -0.810463 -0.769843
v 0.000006 -0.801789 -0.766468
v -0.046790 -0.810463 -0.769844
v -0.086462 -0.835167 -0.779457
v -0.112970 -0.872138 -0.793843
v -0.112984 -0.733176 1.168320
v -0.122292 -0.700332 1.134986
v -0.122294 -0.368004 1.354738
v -0.122294 -0.000000 1.427495
v -0.112986 -0.382648 1.399184
v -0.112986 -0.000000 1.474292
v -0.086478 -0.395063 1.436863
v -0.086479 -0.000000 1.513964
v -0.046807 -0.403359 1.462040
v -0.046807 -0.000000 1.540472
v -0.000011 -0.406272 1.470881
v -0.000011 -0.000000 1.549780
v 0.046785 -0.403359 1.462040
v 0.046785 0.000000 1.540472
v 0.086457 -0.395063 1.436864
v 0.086457 0.000000 1.513965
v 0.112965 -0.382648 1.399185
v 0.112965 0.000000 1.474293
v 0.122274 -0.368004 1.354740
v 0.122273 0.000000 1.427497
v 0.112966 -0.353359 1.310295
v 0.112965 0.000000 1.380701
v 0.086458 -0.340944 1.272615
v 0.086458 0.000000 1.341030
v 0.046787 -0.332649 1.247439
v 0.046786 0.000000 1.314521
v -0.000009 -0.329736 1.238597
v -0.000010 -0.000000 1.305213
v -0.046805 -0.332649 1.247438
v -0.046806 -0.000000 1.314521
v -0.086477 -0.340944 1.272614
v -0.086478 -0.000000 1.341028
v -0.112985 -0.353359 1.310293
v -0.112986 -0.000000 1.380700
v -0.086476 -0.761020 1.196579
v -0.046805 -0.779625 1.215461
v -0.000009 -0.786158 1.222092
v 0.046787 -0.779625 1.215462
v 0.086459 -0.761020 1.196580
v 0.112967 -0.733176 1.168322
v 0.122276 -0.700332 1.134988
v 0.112968 -0.667487 1.101655
v 0.086460 -0.639643 1.073396
v 0.046788 -0.621039 1.054514
v -0.000008 -0.614505 1.047883
v -0.046804 -0.621039 1.054513
v -0.086476 -0.639643 1.073395
v -0.112984 -0.667487 1.101653
v -0.112981 -0.959360 0.827781
v -0.122290 -0.915749 0.810811
v -0.086474 -0.996331 0.842167
v -0.046802 -1.021034 0.851780
v -0.000006 -1.029709 0.855156
v 0.046790 -1.021034 0.851781
v 0.086462 -0.996331 0.842169
v 0.112970 -0.959360 0.827783
v 0.122278 -0.915749 0.810813
v 0.112970 -0.872138 0.793843
v 0.086462 -0.835167 0.779457
v 0.046791 -0.810463 0.769844
v -0.000005 -0.801789 0.766468
v -0.046801 -0.810463 0.769843
v -0.086473 -0.835167 0.779455
v -0.112981 -0.872138 0.793841
vn 0.6934 0.5081 -0.5109
vn 0.5520 0.7531 0.3579
vn 0.7082 0.5215 0.4759
vn 0.9143 0.2857 -0.2870
vn 0.3910 -0.3548 0.8492
vn 0.3899 -0.6519 0.6503
vn 0.0000 -0.7082 0.7060
vn 0.0000 -0.3861 0.9225
vn -0.9997 0.0107 -0.0218
vn -0.9150 0.1540 -0.3728
vn -0.9160 0.0000 -0.4011
vn -0.9997 0.0000 -0.0241
vn -0.3728 0.6541 -0.6581
vn -0.3020 0.9119 0.2779
vn 0.0000 0.9684 0.2495
vn 0.0000 0.7049 -0.7093
vn 0.9997 0.0107 -0.0218
vn 0.9997 0.0176 -0.0176
vn 0.9319 -0.2562 0.2567
vn 0.9322 -0.1374 0.3349
vn -0.6949 0.2716 -0.6658
vn -0.6971 0.0000 -0.7169
vn 0.0000 -0.3550 0.9348
vn -0.2656 -0.3124 0.9120
vn -0.3899 -0.6519 0.6503
vn 0.3741 0.3483 -0.8594
vn 0.3729 0.6541 -0.6581
vn 0.6949 0.2716 -0.6658
vn -0.3741 0.3483 -0.8594
vn -0.3761 0.0000 -0.9266
vn -0.6934 0.5081 -0.5109
vn -0.5520 0.7531 0.3579
vn 0.0000 0.3749 -0.9270
vn 0.0000 0.0000 -1.0000
vn 0.3020 0.9119 0.2779
vn -0.3910 -0.3548 0.8492
vn 0.3761 0.0000 -0.9265
vn 0.7479 0.2592 0.6111
vn 0.6717 0.0109 0.7407
vn 0.7179 -0.4924 0.4921
vn 0.7189 -0.2667 0.6419
vn 0.6972 0.0000 -0.7169
vn 0.2656 -0.3124 0.9120
vn 0.9150 0.1540 -0.3727
vn 0.9160 0.0000 -0.4011
vn -0.7179 -0.4924 0.4921
vn -0.5004 -0.1871 0.8453
vn -0.6717 0.0109 0.7407
vn -0.9319 -0.2562 0.2566
vn 0.9997 0.0000 -0.0241
vn -0.9143 0.2857 -0.2870
vn -0.7082 0.5215 0.4758
vn -0.9322 -0.1374 0.3349
vn -0.9997 0.0176 -0.0176
vn 0.9330 0.0000 0.3597
vn -0.7189 -0.2667 0.6419
vn 0.7215 0.0000 0.6923
vn 0.3936 0.0000 0.9192
vn -0.7479 0.2592 0.6110
vn 0.0000 0.0000 1.0000
vn 0.5004 -0.1871 0.8453
vn -0.3936 0.0000 0.9192
vn -0.7216 0.0000 0.6923
vn -0.9330 0.0000 0.3597
vn 0.6934 0.5081 0.5109
vn 0.9143 0.2857 0.2870
vn 0.7082 0.5215 -0.4758
vn 0.5520 0.7531 -0.3579
vn 0.3910 -0.3548 -0.8492
vn 0.0000 -0.3861 -0.9225
vn 0.0000 -0.7082 -0.7060
vn 0.3899 -0.6519 -0.6503
vn -0.9997 0.0107 0.0218
vn -0.9997 0.0000 0.0241
vn -0.9160 0.0000 0.4011
vn -0.9150 0.1540 0.3727
vn -0.3729 0.6541 0.6581
vn 0.0000 0.7049 0.7093
vn 0.0000 0.9684 -0.2495
vn -0.3020 0.9119 -0.2779
vn 0.9997 0.0107 0.0218
vn 0.9322 -0.1374 -0.3349
vn 0.9319 -0.2562 -0.2566
vn 0.9997 0.0176 0.0176
vn -0.6972 0.0000 0.7169
vn -0.6949 0.2716 0.6658
vn -0.3899 -0.6519 -0.6503
vn -0.2656 -0.3124 -0.9120
vn 0.0000 -0.3550 -0.9348
vn 0.3741 0.3483 0.8594
vn 0.6949 0.2716 0.6658
vn 0.3728 0.6541 0.6581
vn -0.3761 0.0000 0.9265
vn -0.3741 0.3483 0.8594
vn -0.6934 0.5081 0.5109
vn -0.5520 0.7531 -0.3579
vn 0.0000 0.3749 0.9270
vn 0.3020 0.9119 -0.2779
vn -0.3910 -0.3548 -0.8492
vn 0.3761 0.0000 0.9266
vn 0.6717 0.0109 -0.7407
vn 0.7479 0.2592 -0.6110
vn 0.7189 -0.2667 -0.6419
vn 0.7179 -0.4924 -0.4921
vn 0.6971 0.0000 0.7169
vn 0.2656 -0.3124 -0.9120
vn 0.9150 0.1540 0.3728
vn 0.9160 0.0000 0.4011
vn -0.7179 -0.4924 -0.4921
vn -0.9319 -0.2562 -0.2567
vn -0.6717 0.0109 -0.7407
vn -0.5004 -0.1871 -0.8453
vn 0.9997 0.0000 0.0241
vn -0.9143 0.2857 0.2870
vn -0.7082 0.5215 -0.4759
vn -0.9322 -0.1374 -0.3349
vn -0.9997 0.0176 0.0176
vn 0.9330 0.0000 -0.3597
vn -0.7189 -0.2667 -0.6419
vn 0.7216 0.0000 -0.6923
vn 0.3936 0.0000 -0.9192
vn -0.7479 0.2592 -0.6111
vn 0.5004 -0.1871 -0.8453
vn -0.3936 0.0000 -0.9192
vn -0.7215 0.0000 -0.6923
vn -0.9330 0.0000 -0.3597
vn 0.6934 -0.5081 -0.5109
vn 0.9143 -0.2857 -0.2870
vn 0.7082 -0.5215 0.4759
vn 0.5520 -0.7531 0.3579
vn 0.3910 0.3548 0.8492
vn 0.0000 0.3861 0.9225
vn 0.0000 0.7082 0.7060
vn 0.3899 0.6519 0.6503
vn -0.9997 -0.0107 -0.0218
vn -0.9150 -0.1540 -0.3728
vn -0.3728 -0.6541 -0.6581
vn 0.0000 -0.7049 -0.7093
vn 0.0000 -0.9684 0.2495
vn -0.3020 -0.9119 0.2779
vn 0.9997 -0.0107 -0.0218
vn 0.9322 0.1374 0.3349
vn 0.9319 0.2562 0.2567
vn 0.9997 -0.0176 -0.0176
vn -0.6949 -0.2716 -0.6658
vn -0.3899 0.6519 0.6503
vn -0.2656 0.3124 0.9120
vn 0.0000 0.3550 0.9348
vn 0.3741 -0.3483 -0.8594
vn 0.6949 -0.2716 -0.6658
vn 0.3729 -0.6541 -0.6581
vn -0.3741 -0.3483 -0.8594
vn -0.6934 -0.5081 -0.5109
vn -0.5520 -0.7531 0.3579
vn 0.0000 -0.3749 -0.9270
vn 0.3020 -0.9119 0.2779
vn -0.3910 0.3548 0.8492
vn 0.6717 -0.0109 0.7407
vn 0.7479 -0.2592 0.6111
vn 0.7189 0.2667 0.6419
vn 0.7179 0.4924 0.4921
vn 0.2656 0.3124 0.9120
vn 0.9150 -0.1540 -0.3727
vn -0.7179 0.4924 0.4921
vn -0.9319 0.2562 0.2566
vn -0.6717 -0.0109 0.7407
vn -0.5004 0.1871 0.8453
vn -0.9143 -0.2857 -0.2870
vn -0.7082 -0.5215 0.4758
vn -0.9322 0.1374 0.3349
vn -0.9997 -0.0176 -0.0176
vn -0.7189 0.2667 0.6419
vn -0.7479 -0.2592 0.6110
vn 0.5004 0.1871 0.8453
vn 0.6934 -0.5081 0.5109
vn 0.5520 -0.7531 -0.3579
vn 0.7082 -0.5215 -0.4758
vn 0.9143 -0.2857 0.2870
vn 0.3910 0.3548 -0.8492
vn 0.3899 0.6519 -0.6503
vn 0.0000 0.7082 -0.7060
vn 0.0000 0.3861 -0.9225
vn -0.9997 -0.0107 0.0218
vn -0.9150 -0.1540 0.3727
vn -0.3729 -0.6541 0.6581
vn -0.3020 -0.9119 -0.2779
vn 0.0000 -0.9684 -0.2495
vn 0.0000 -0.7049 0.7093
vn 0.9997 -0.0107 0.0218
vn 0.9997 -0.0176 0.0176
vn 0.9319 0.2562 -0.2566
vn 0.9322 0.1374 -0.3349
vn -0.6949 -0.2716 0.6658
vn 0.0000 0.3550 -0.9348
vn -0.2656 0.3124 -0.9120
vn -0.3899 0.6519 -0.6503
vn 0.3741 -0.3483 0.8594
vn 0.3728 -0.6541 0.6581
vn 0.6949 -0.2716 0.6658
vn -0.3741 -0.3483 0.8594
vn -0.6934 -0.5081 0.5109
vn -0.5520 -0.7531 -0.3579
vn 0.0000 -0.3749 0.9270
vn 0.3020 -0.9119 -0.2779
vn -0.3910 0.3548 -0.8492
vn 0.7479 -0.2592 -0.6110
vn 0.6717 -0.0109 -0.7407
vn 0.7179 0.4924 -0.4921
vn 0.7189 0.2667 -0.6419
vn 0.2656 0.3124 -0.9120
vn 0.9150 -0.1540 0.3728
vn -0.7179 0.4924 -0.4921
vn -0.5004 0.1871 -0.8453
vn -0.6717 -0.0109 -0.7407
vn -0.9319 0.2562 -0.2567
vn -0.9143 -0.2857 0.2870
vn -0.7082 -0.5215 -0.4759
vn -0.9322 0.1374 -0.3349
vn -0.9997 -0.0176 0.0176
vn -0.7189 0.2667 -0.6419
vn -0.7479 -0.2592 -0.6111
vn 0.5004 0.1871 -0.8453
usemtl Handles
s 1
f 23//1 39//2 40//3 24//4
f 14//5 28//6 29//7 15//8
f 3//9 4//10 102//11 100//12
f 20//13 36//14 37//15 21//16
f 11//17 25//18 26//19 12//20
f 4//10 5//21 104//22 102//11
f 29//7 45//23 46//24 30//25
f 8//26 22//27 23//1 9//28
f 5//21 6//29 106//30 104//22
f 19//31 35//32 36//14 20//13
f 5//21 19//31 20//13 6//29
f 6//29 7//33 108//34 106//30
f 22//27 38//35 39//2 23//1
f 15//8 29//7 30//25 16//36
f 7//33 8//26 110//37 108//34
f 25//18 41//38 42//39 26//19
f 12//20 26//19 27//40 13//41
f 8//26 9//28 112//42 110//37
f 28//6 44//43 45//23 29//7
f 9//28 23//1 24//4 10//44
f 9//28 10//44 114//45 112//42
f 31//46 47//47 48//48 32//49
f 6//29 20//13 21//16 7//33
f 10//44 11//17 116//50 114//45
f 1//51 33//52 35//32 19//31
f 18//53 32//49 2//54 3//9
f 11//17 12//20 118//55 116//50
f 21//16 37//15 38//35 22//27
f 16//36 30//25 31//46 17//56
f 12//20 13//41 120//57 118//55
f 24//4 40//3 41//38 25//18
f 13//41 27//40 28//6 14//5
f 13//41 14//5 122//58 120//57
f 32//49 48//48 34//59 2//54
f 10//44 24//4 25//18 11//17
f 14//5 15//8 124//60 122//58
f 27//40 43//61 44//43 28//6
f 3//9 2//54 1//51 4//10
f 15//8 16//36 126//62 124//60
f 34//59 48//48 47//47 46//24 45//23 44//43 43//61 42//39 41//38 40//3 39//2 38//35 37//15 36//14 35//32 33//52
f 7//33 21//16 22//27 8//26
f 16//36 17//56 128//63 126//62
f 30//25 46//24 47//47 31//46
f 17//56 18//53 130//64 128//63
f 26//19 42//39 43//61 27//40
f 17//56 31//46 32//49 18//53
f 18//53 3//9 100//12 130//64
f 4//10 1//51 19//31 5//21
f 2//54 34//59 33//52 1//51
f 71//65 72//66 88//67 87//68
f 62//69 63//70 77//71 76//72
f 51//73 164//74 166//75 52//76
f 68//77 69//78 85//79 84//80
f 59//81 60//82 74//83 73//84
f 52//76 166//75 168//85 53//86
f 77//71 78//87 94//88 93//89
f 56//90 57//91 71//65 70//92
f 53//86 168//85 170//93 54//94
f 67//95 68//77 84//80 83//96
f 53//86 54//94 68//77 67//95
f 54//94 170//93 172//60 55//97
f 70//92 71//65 87//68 86//98
f 63//70 64//99 78//87 77//71
f 55//97 172//60 174//100 56//90
f 73//84 74//83 90//101 89//102
f 60//82 61//103 75//104 74//83
f 56//90 174//100 176//105 57//91
f 76//72 77//71 93//89 92//106
f 57//91 58//107 72//66 71//65
f 57//91 176//105 178//108 58//107
f 79//109 80//110 96//111 95//112
f 54//94 55//97 69//78 68//77
f 58//107 178//108 180//113 59//81
f 49//114 67//95 83//96 81//115
f 66//116 51//73 50//117 80//110
f 59//81 180//113 182//118 60//82
f 69//78 70//92 86//98 85//79
f 64//99 65//119 79//109 78//87
f 60//82 182//118 184//120 61//103
f 72//66 73//84 89//102 88//67
f 61//103 62//69 76//72 75//104
f 61//103 184//120 186//121 62//69
f 80//110 50//117 82//122 96//111
f 58//107 59//81 73//84 72//66
f 62//69 186//121 188//34 63//70
f 75//104 76//72 92//106 91//123
f 51//73 52//76 49//114 50//117
f 63//70 188//34 190//124 64//99
f 82//122 81//115 83//96 84//80 85//79 86//98 87//68 88//67 89//102 90//101 91//123 92//106 93//89 94//88 95//112 96//111
f 55//97 56//90 70//92 69//78
f 64//99 190//124 192//125 65//119
f 78//87 79//109 95//112 94//88
f 65//119 192//125 194//126 66//116
f 74//83 75//104 91//123 90//101
f 65//119 66//116 80//110 79//109
f 66//116 194//126 164//74 51//73
f 52//76 53//86 67//95 49//114
f 50//117 49//114 81//115 82//122
f 135//127 136//128 152//129 151//130
f 121//131 123//132 141//133 140//134
f 99//135 100//12 102//11 101//136
f 132//137 133//138 149//139 148//140
f 115//141 117//142 138//143 137//144
f 101//136 102//11 104//22 103//145
f 141//133 142//146 158//147 157//148
f 109//149 111//150 135//127 134//151
f 103//145 104//22 106//30 105//152
f 131//153 132//137 148//140 147//154
f 103//145 105//152 132//137 131//153
f 105//152 106//30 108//34 107//155
f 134//151 135//127 151//130 150//156
f 123//132 125//157 142//146 141//133
f 107//155 108//34 110//37 109//149
f 137//144 138//143 154//158 153//159
f 117//142 119//160 139//161 138//143
f 109//149 110//37 112//42 111//150
f 140//134 141//133 157//148 156//162
f 111//150 113//163 136//128 135//127
f 111//150 112//42 114//45 113//163
f 143//164 144//165 160//166 159//167
f 105//152 107//155 133//138 132//137
f 113//163 114//45 116//50 115//141
f 97//168 131//153 147//154 145//169
f 129//170 99//135 98//171 144//165
f 115//141 116//50 118//55 117//142
f 133//138 134//151 150//156 149//139
f 125//157 127//172 143//164 142//146
f 117//142 118//55 120//57 119//160
f 136//128 137//144 153//159 152//129
f 119//160 121//131 140//134 139//161
f 119//160 120//57 122//58 121//131
f 144//165 98//171 146//173 160//166
f 113//163 115//141 137//144 136//128
f 121//131 122//58 124//60 123//132
f 139//161 140//134 156//162 155//174
f 99//135 101//136 97//168 98//171
f 123//132 124//60 126//62 125//157
f 146//173 145//169 147//154 148//140 149//139 150//156 151//130 152//129 153//159 154//158 155//174 156//162 157//148 158//147 159//167 160//166
f 107//155 109//149 134//151 133//138
f 125//157 126//62 128//63 127//172
f 142//146 143//164 159//167 158//147
f 127//172 128//63 130//64 129//170
f 138//143 139//161 155//174 154//158
f 127//172 129//170 144//165 143//164
f 129//170 130//64 100//12 99//135
f 101//136 103//145 131//153 97//168
f 98//171 97//168 145//169 146//173
f 199//175 215//176 216//177 200//178
f 185//179 204//180 205//181 187//182
f 163//183 165//184 166//75 164//74
f 196//185 212//186 213//187 197//188
f 179//189 201//190 202//191 181//192
f 165//184 167//193 168//85 166//75
f 205//181 221//194 222//195 206//196
f 173//197 198//198 199//175 175//199
f 167//193 169//200 170//93 168//85
f 195//201 211//202 212//186 196//185
f 167//193 195//201 196//185 169//200
f 169//200 171//203 172//60 170//93
f 198//198 214//204 215//176 199//175
f 187//182 205//181 206//196 189//205
f 171//203 173//197 174//100 172//60
f 201//190 217//206 218//207 202//191
f 181//192 202//191 203//208 183//209
f 173//197 175//199 176//105 174//100
f 204//180 220//210 221//194 205//181
f 175//199 199//175 200//178 177//211
f 175//199 177//211 178//108 176//105
f 207//212 223//213 224//214 208//215
f 169//200 196//185 197//188 171//203
f 177//211 179//189 180//113 178//108
f 161//216 209//217 211//202 195//201
f 193//218 208//215 162//219 163//183
f 179//189 181//192 182//118 180//113
f 197//188 213//187 214//204 198//198
f 189//205 206//196 207//212 191//220
f 181//192 183//209 184//120 182//118
f 200//178 216//177 217//206 201//190
f 183//209 203//208 204//180 185//179
f 183//209 185//179 186//121 184//120
f 208//215 224//214 210//221 162//219
f 177//211 200//178 201//190 179//189
f 185//179 187//182 188//34 186//121
f 203//208 219//222 220//210 204//180
f 163//183 162//219 161//216 165//184
f 187//182 189//205 190//124 188//34
f 210//221 224//214 223//213 222//195 221//194 220//210 219//222 218//207 217//206 216//177 215//176 214//204 213//187 212//186 211//202 209//217
f 171//203 197//188 198//198 173//197
f 189//205 191//220 192//125 190//124
f 206//196 222//195 223//213 207//212
f 191//220 193//218 194//126 192//125
f 202//191 218//207 219//222 203//208
f 191//220 207//212 208//215 193//218
f 193//218 163//183 164//74 194//126
f 165//184 161//216 195//201 167//193
f 162//219 210//221 209//217 161//216
o Bars_Cylinder.001
v -0.089606 0.801103 -1.070207
v -0.089509 -0.797074 1.073220
v -0.030115 0.731428 -1.122160
v -0.030018 -0.866748 1.021266
v 0.070926 0.755258 -1.104398
v 0.071023 -0.842919 1.039029
v 0.073883 0.839660 -1.041466
v 0.073980 -0.758517 1.101961
v -0.025331 0.867993 -1.020335
v -0.025234 -0.730183 1.123091
v -0.089622 0.801103 1.070206
v -0.089493 -0.797074 -1.073221
v -0.030132 0.731428 1.122160
v -0.030003 -0.866748 -1.021266
v 0.070910 0.755258 1.104398
v 0.071039 -0.842919 -1.039028
v 0.073868 0.839659 1.041467
v 0.073997 -0.758517 -1.101959
v -0.025346 0.867993 1.020335
v -0.025217 -0.730183 -1.123091
vn 0.8252 0.4528 0.3376
vn -0.2822 0.7691 0.5735
vn -0.9996 0.0225 0.0168
vn -0.0000 0.5977 -0.8017
vn -0.3356 -0.7552 -0.5631
vn 0.7922 -0.4892 -0.3648
vn 0.0000 -0.5977 0.8017
vn 0.8252 0.4528 -0.3376
vn -0.2822 0.7691 -0.5735
vn -0.9996 0.0225 -0.0168
vn -0.0000 0.5977 0.8017
vn -0.3356 -0.7552 0.5631
vn 0.7922 -0.4892 0.3648
vn 0.0000 -0.5977 -0.8017
usemtl Bars
s off
f 225//223 226//223 228//223 227//223
f 227//224 228//224 230//224 229//224
f 229//225 230//225 232//225 231//225
f 228//226 226//226 234//226 232//226 230//226
f 231//227 232//227 234//227 233//227
f 233//228 234//228 226//228 225//228
f 225//229 227//229 229//229 231//229 233//229
f 235//230 237//230 238//230 236//230
f 237//231 239//231 240//231 238//231
f 239//232 241//232 242//232 240//232
f 238//233 240//233 242//233 244//233 236//233
f 241//234 243//234 244//234 242//234
f 243//235 235//235 236//235 244//235
f 235//236 243//236 241//236 239//236 237//236
