# Blender v2.79 (sub 0) OBJ File: 'cockpit.blend'
# www.blender.org
mtllib SteeringColumn.mtl
o Cylinder_Cylinder.002
v 0.401005 -2.939169 0.000003
v 0.401005 0.218730 0.000003
v 0.390300 -2.939169 0.053818
v 0.390300 0.218730 0.053818
v 0.359816 -2.939169 0.099440
v 0.359816 0.218730 0.099440
v 0.314194 -2.939169 0.129923
v 0.314194 0.218730 0.129923
v 0.260379 -2.939169 0.140627
v 0.260379 0.218730 0.140627
v 0.206564 -2.939169 0.129922
v 0.206564 0.218730 0.129922
v 0.160942 -2.939169 0.099438
v 0.160942 0.218730 0.099438
v 0.130459 -2.939169 0.053816
v 0.130459 0.218730 0.053816
v 0.119755 -2.939169 0.000001
v 0.119755 0.218730 0.000001
v 0.130460 -2.939169 -0.053814
v 0.130460 0.218730 -0.053814
v 0.163482 -2.939169 -0.100190
v 0.163797 0.218671 -0.100865
v 0.206566 -2.939169 -0.129919
v 0.206566 0.218730 -0.129919
v 0.260381 -2.939169 -0.140623
v 0.260381 0.218730 -0.140623
v 0.314196 -2.939169 -0.129918
v 0.314196 0.218730 -0.129918
v 0.359818 -2.939169 -0.099434
v 0.359818 0.218730 -0.099434
v 0.390301 -2.939169 -0.053812
v 0.390301 0.218730 -0.053812
v 0.159845 0.039317 0.074630
v -0.147314 0.044626 0.065142
v 0.160110 0.008043 0.079916
v -0.147056 0.005026 0.078284
v 0.160521 -0.022872 0.072831
v -0.146645 -0.025889 0.071200
v 0.161016 -0.048722 0.054455
v -0.146150 -0.051738 0.052823
v 0.161519 -0.065570 0.027585
v -0.145648 -0.068586 0.025953
v 0.161953 -0.070852 -0.003688
v -0.145213 -0.073868 -0.005320
v 0.162253 -0.063763 -0.034604
v -0.144906 -0.058454 -0.044092
v 0.162294 -0.018511 -0.077306
v -0.144881 -0.031440 -0.069584
v 0.162029 0.012764 -0.082592
v -0.145137 0.009747 -0.084223
v 0.161618 0.043679 -0.075507
v -0.145548 0.040662 -0.077139
v 0.161123 0.069528 -0.057131
v -0.146043 0.066512 -0.058763
v 0.160620 0.086376 -0.030261
v -0.146546 0.083360 -0.031893
v 0.160186 0.091658 0.001012
v -0.146980 0.088642 -0.000619
v 0.159886 0.084570 0.031928
v -0.147289 0.071641 0.039650
v 0.159826 0.075380 0.044853
v -0.115499 0.072938 0.043382
v 0.159805 0.052754 0.066205
v -0.115522 0.047564 0.067325
v 0.162313 -0.054573 -0.047529
v -0.113015 -0.059762 -0.046408
v 0.162333 -0.031947 -0.068880
v -0.112992 -0.034389 -0.070352
vn 0.9808 0.0000 0.1951
vn 0.8315 0.0000 0.5556
vn 0.5556 0.0000 0.8315
vn 0.1951 0.0000 0.9808
vn -0.1951 0.0000 0.9808
vn -0.5556 0.0000 0.8315
vn -0.8315 0.0000 0.5556
vn -0.9808 0.0000 0.1951
vn -0.9808 0.0000 -0.1951
vn -0.8153 -0.0000 -0.5791
vn -0.5650 -0.0001 -0.8251
vn -0.1951 0.0000 -0.9808
vn 0.1951 0.0000 -0.9808
vn 0.5556 0.0000 -0.8315
vn -0.0000 1.0000 -0.0000
vn 0.8315 0.0000 -0.5556
vn 0.9808 0.0000 -0.1951
vn 0.0000 -1.0000 -0.0000
vn -0.0132 0.3785 0.9255
vn -0.0166 0.2515 0.9677
vn -0.0030 -0.2234 0.9747
vn 0.0014 -0.5794 0.8151
vn 0.0055 -0.8472 0.5313
vn 0.0088 -0.9860 0.1666
vn 0.0020 -0.9516 -0.3073
vn 0.0014 -0.4212 -0.9070
vn -0.0027 -0.2652 -0.9642
vn 0.0030 0.2234 -0.9747
vn -0.0014 0.5794 -0.8151
vn -0.0055 0.8472 -0.5313
vn -0.0088 0.9860 -0.1666
vn -0.0200 0.7269 -0.6864
vn -0.0214 0.9471 0.3203
vn 0.0100 -0.6863 -0.7273
vn -0.0186 0.8894 0.4568
vn 0.0063 -0.8935 -0.4489
vn -0.9999 -0.0105 -0.0121
vn -0.0100 0.6863 0.7273
vn -0.0507 -0.7269 0.6848
usemtl Stick
s off
f 1//1 2//1 4//1 3//1
f 3//2 4//2 6//2 5//2
f 5//3 6//3 8//3 7//3
f 7//4 8//4 10//4 9//4
f 9//5 10//5 12//5 11//5
f 11//6 12//6 14//6 13//6
f 13//7 14//7 16//7 15//7
f 15//8 16//8 18//8 17//8
f 17//9 18//9 20//9 19//9
f 19//10 20//10 22//10 21//10
f 21//11 22//11 24//11 23//11
f 23//12 24//12 26//12 25//12
f 25//13 26//13 28//13 27//13
f 27//14 28//14 30//14 29//14
f 4//15 2//15 32//15 30//15 28//15 26//15 24//15 22//15 20//15 18//15 16//15 14//15 12//15 10//15 8//15 6//15
f 29//16 30//16 32//16 31//16
f 31//17 32//17 2//17 1//17
f 1//18 3//18 5//18 7//18 9//18 11//18 13//18 15//18 17//18 19//18 21//18 23//18 25//18 27//18 29//18 31//18
f 63//19 64//19 34//19 33//19
f 33//20 34//20 36//20 35//20
f 35//21 36//21 38//21 37//21
f 37//22 38//22 40//22 39//22
f 39//23 40//23 42//23 41//23
f 41//24 42//24 44//24 43//24
f 43//25 44//25 46//25 45//25
f 67//26 68//26 48//26 47//26
f 47//27 48//27 50//27 49//27
f 49//28 50//28 52//28 51//28
f 51//29 52//29 54//29 53//29
f 53//30 54//30 56//30 55//30
f 55//31 56//31 58//31 57//31
f 34//32 64//32 66//32 46//32
f 57//33 58//33 60//33 59//33
f 66//34 68//34 67//34 65//34
f 59//35 60//35 62//35 61//35
f 45//36 46//36 66//36 65//36
f 48//37 60//37 58//37 56//37 54//37 52//37 50//37
f 62//38 64//38 63//38 61//38
f 68//39 62//39 60//39 48//39
f 66//37 64//37 62//37 68//37
f 46//37 44//37 42//37 40//37 38//37 36//37 34//37
