# Blender v2.79 (sub 0) OBJ File: 'cockpit.blend'
# www.blender.org
mtllib ThrottleBase.mtl
o Throttle_base_Circle.003
v 0.083568 -1.599994 -1.754509
v 0.051225 -1.493376 -1.754509
v -0.001296 -1.395116 -1.754510
v -0.071977 -1.308990 -1.754510
v -0.158103 -1.238309 -1.754511
v -0.256363 -1.185788 -1.754511
v -0.362981 -1.153446 -1.754512
v -0.473860 -1.142525 -1.754513
v -0.584739 -1.153446 -1.754514
v -0.691357 -1.185788 -1.754515
v -0.789617 -1.238309 -1.754515
v -0.875743 -1.308991 -1.754516
v -0.946424 -1.395116 -1.754516
v -0.998945 -1.493376 -1.754517
v -1.031287 -1.599994 -1.754517
v -1.042208 -1.710874 -1.754517
v -1.031287 -1.821753 -1.754517
v -0.998945 -1.928371 -1.754517
v -0.946424 -2.026631 -1.754516
v -0.875742 -2.112756 -1.754516
v -0.789617 -2.183438 -1.754515
v -0.691357 -2.235959 -1.754515
v -0.584739 -2.268301 -1.754514
v -0.473859 -2.279222 -1.754513
v 0.083569 -1.599994 -1.903819
v 0.051226 -1.493376 -1.903819
v -0.001295 -1.395116 -1.903820
v -0.071976 -1.308990 -1.903820
v -0.158102 -1.238309 -1.903821
v -0.256361 -1.185788 -1.903821
v -0.362980 -1.153446 -1.903822
v -0.473859 -1.142525 -1.903823
v -0.584738 -1.153446 -1.903824
v -0.691356 -1.185788 -1.903825
v -0.789616 -1.238309 -1.903825
v -0.875742 -1.308991 -1.903826
v -0.946423 -1.395116 -1.903826
v -0.998944 -1.493376 -1.903827
v -1.031286 -1.599994 -1.903827
v -1.042207 -1.710874 -1.903827
v -1.031286 -1.821753 -1.903827
v -0.998944 -1.928371 -1.903827
v -0.946423 -2.026631 -1.903826
v -0.875741 -2.112756 -1.903826
v -0.789616 -2.183438 -1.903825
v -0.691356 -2.235959 -1.903825
v -0.584737 -2.268301 -1.903824
v -0.473858 -2.279222 -1.903823
v -0.198367 -1.656075 -1.903821
v -0.214352 -1.603382 -1.903821
v -0.240309 -1.554820 -1.903821
v -0.275241 -1.512255 -1.903822
v -0.317806 -1.477323 -1.903822
v -0.366367 -1.451366 -1.903822
v -0.419060 -1.435382 -1.903823
v -0.473859 -1.429985 -1.903823
v -0.528657 -1.435382 -1.903823
v -0.581350 -1.451366 -1.903824
v -0.629912 -1.477323 -1.903824
v -0.672477 -1.512255 -1.903825
v -0.707409 -1.554820 -1.903825
v -0.733366 -1.603382 -1.903825
v -0.749350 -1.656075 -1.903825
v -0.754747 -1.710873 -1.903825
v -0.749350 -1.765672 -1.903825
v -0.733366 -1.818365 -1.903825
v -0.707409 -1.866927 -1.903825
v -0.672477 -1.909492 -1.903825
v -0.629912 -1.944424 -1.903824
v -0.581350 -1.970381 -1.903824
v -0.528657 -1.986365 -1.903823
v -0.473859 -1.991762 -1.903823
v -0.198367 -1.656075 -1.997898
v -0.214351 -1.603382 -1.997899
v -0.240308 -1.554820 -1.997899
v -0.275240 -1.512255 -1.997899
v -0.317805 -1.477323 -1.997899
v -0.366367 -1.451366 -1.997900
v -0.419059 -1.435382 -1.997900
v -0.473858 -1.429985 -1.997900
v -0.528657 -1.435382 -1.997901
v -0.581349 -1.451366 -1.997901
v -0.629911 -1.477323 -1.997902
v -0.672476 -1.512255 -1.997902
v -0.707408 -1.554820 -1.997902
v -0.733365 -1.603382 -1.997902
v -0.749349 -1.656075 -1.997903
v -0.754747 -1.710873 -1.997903
v -0.749349 -1.765672 -1.997903
v -0.733365 -1.818365 -1.997902
v -0.707408 -1.866927 -1.997902
v -0.672476 -1.909492 -1.997902
v -0.629911 -1.944424 -1.997902
v -0.581349 -1.970381 -1.997901
v -0.528656 -1.986365 -1.997901
v -0.473858 -1.991762 -1.997900
v 0.084644 -1.599780 -1.997896
v 0.052239 -1.492957 -1.997897
v -0.000383 -1.394508 -1.997897
v -0.071201 -1.308216 -1.997898
v -0.157492 -1.237398 -1.997898
v -0.255942 -1.184776 -1.997899
v -0.362765 -1.152372 -1.997900
v -0.473858 -1.141430 -1.997900
v -0.584951 -1.152372 -1.997901
v -0.691775 -1.184776 -1.997902
v -0.790224 -1.237399 -1.997903
v -0.876515 -1.308216 -1.997903
v -0.947333 -1.394508 -1.997904
v -0.999955 -1.492957 -1.997904
v -1.032360 -1.599781 -1.997905
v -1.043302 -1.710874 -1.997905
v -1.032360 -1.821967 -1.997905
v -0.999955 -1.928790 -1.997904
v -0.947333 -2.027240 -1.997904
v -0.876515 -2.113531 -1.997903
v -0.790224 -2.184349 -1.997903
v -0.691774 -2.236971 -1.997902
v -0.584951 -2.269375 -1.997901
v -0.473858 -2.280317 -1.997900
v 0.083574 -1.599994 -2.671567
v 0.051232 -1.493376 -2.671567
v -0.001289 -1.395116 -2.671567
v -0.071970 -1.308990 -2.671568
v -0.158096 -1.238309 -2.671569
v -0.256356 -1.185788 -2.671569
v -0.362974 -1.153446 -2.671570
v -0.473853 -1.142525 -2.671571
v -0.584732 -1.153446 -2.671572
v -0.691351 -1.185788 -2.671573
v -0.789611 -1.238309 -2.671573
v -0.875736 -1.308991 -2.671574
v -0.946417 -1.395116 -2.671574
v -0.998938 -1.493376 -2.671575
v -1.031281 -1.599994 -2.671575
v -1.042201 -1.710874 -2.671575
v -1.031281 -1.821753 -2.671575
v -0.998938 -1.928371 -2.671575
v -0.946417 -2.026631 -2.671574
v -0.875736 -2.112756 -2.671574
v -0.789610 -2.183438 -2.671573
v -0.691350 -2.235959 -2.671573
v -0.584732 -2.268301 -2.671572
v -0.473853 -2.279222 -2.671571
v 0.083573 -1.599994 -2.522257
v 0.051231 -1.493376 -2.522257
v -0.001290 -1.395116 -2.522257
v -0.071972 -1.308990 -2.522258
v -0.158097 -1.238309 -2.522259
v -0.256357 -1.185788 -2.522259
v -0.362975 -1.153446 -2.522260
v -0.473854 -1.142525 -2.522261
v -0.584733 -1.153446 -2.522262
v -0.691352 -1.185788 -2.522263
v -0.789612 -1.238309 -2.522263
v -0.875737 -1.308991 -2.522264
v -0.946419 -1.395116 -2.522264
v -0.998940 -1.493376 -2.522265
v -1.031282 -1.599994 -2.522265
v -1.042202 -1.710874 -2.522265
v -1.031282 -1.821753 -2.522265
v -0.998939 -1.928371 -2.522265
v -0.946418 -2.026631 -2.522264
v -0.875737 -2.112756 -2.522264
v -0.789611 -2.183438 -2.522263
v -0.691351 -2.235959 -2.522263
v -0.584733 -2.268301 -2.522262
v -0.473854 -2.279222 -2.522261
v -0.198363 -1.656075 -2.522259
v -0.214347 -1.603382 -2.522259
v -0.240304 -1.554820 -2.522259
v -0.275236 -1.512255 -2.522259
v -0.317801 -1.477323 -2.522260
v -0.366363 -1.451366 -2.522260
v -0.419056 -1.435382 -2.522260
v -0.473854 -1.429985 -2.522261
v -0.528653 -1.435382 -2.522261
v -0.581346 -1.451366 -2.522262
v -0.629908 -1.477323 -2.522262
v -0.672472 -1.512255 -2.522262
v -0.707405 -1.554820 -2.522263
v -0.733361 -1.603382 -2.522263
v -0.749346 -1.656075 -2.522263
v -0.754743 -1.710873 -2.522263
v -0.749346 -1.765672 -2.522263
v -0.733361 -1.818365 -2.522263
v -0.707404 -1.866927 -2.522263
v -0.672472 -1.909492 -2.522262
v -0.629907 -1.944424 -2.522262
v -0.581345 -1.970381 -2.522262
v -0.528653 -1.986365 -2.522261
v -0.473854 -1.991762 -2.522261
v -0.198364 -1.656075 -2.428181
v -0.214348 -1.603382 -2.428182
v -0.240305 -1.554820 -2.428182
v -0.275237 -1.512255 -2.428182
v -0.317802 -1.477323 -2.428182
v -0.366364 -1.451366 -2.428183
v -0.419056 -1.435382 -2.428183
v -0.473855 -1.429985 -2.428184
v -0.528654 -1.435382 -2.428184
v -0.581346 -1.451366 -2.428184
v -0.629908 -1.477323 -2.428185
v -0.672473 -1.512255 -2.428185
v -0.707405 -1.554820 -2.428185
v -0.733362 -1.603382 -2.428185
v -0.749346 -1.656075 -2.428185
v -0.754744 -1.710873 -2.428185
v -0.749346 -1.765672 -2.428185
v -0.733362 -1.818365 -2.428185
v -0.707405 -1.866927 -2.428185
v -0.672473 -1.909492 -2.428185
v -0.629908 -1.944424 -2.428185
v -0.581346 -1.970381 -2.428184
v -0.528653 -1.986365 -2.428184
v -0.473855 -1.991762 -2.428184
v 0.084647 -1.599780 -2.428179
v 0.052242 -1.492957 -2.428180
v -0.000380 -1.394508 -2.428180
v -0.071198 -1.308216 -2.428181
v -0.157489 -1.237398 -2.428181
v -0.255938 -1.184776 -2.428182
v -0.362762 -1.152372 -2.428183
v -0.473855 -1.141430 -2.428184
v -0.584948 -1.152372 -2.428184
v -0.691772 -1.184776 -2.428185
v -0.790221 -1.237399 -2.428186
v -0.876512 -1.308216 -2.428186
v -0.947330 -1.394508 -2.428187
v -0.999952 -1.492957 -2.428187
v -1.032357 -1.599781 -2.428188
v -1.043298 -1.710874 -2.428188
v -1.032357 -1.821967 -2.428188
v -0.999952 -1.928790 -2.428187
v -0.947330 -2.027240 -2.428187
v -0.876512 -2.113531 -2.428186
v -0.790220 -2.184349 -2.428186
v -0.691771 -2.236971 -2.428185
v -0.584947 -2.269375 -2.428184
v -0.473854 -2.280317 -2.428184
vn 0.0000 0.0000 -1.0000
vn -0.0980 0.9952 -0.0000
vn -0.2903 -0.9569 -0.0000
vn -0.2903 0.9569 -0.0000
vn -0.0980 -0.9952 -0.0000
vn -0.4714 0.8819 -0.0000
vn -0.6344 0.7730 -0.0000
vn -0.7730 0.6344 -0.0000
vn -0.8819 0.4714 -0.0000
vn -0.9569 0.2903 -0.0000
vn 0.9569 0.2903 0.0000
vn -0.9952 0.0980 -0.0000
vn 0.8819 0.4714 0.0000
vn -0.9952 -0.0980 -0.0000
vn 0.7730 0.6344 0.0000
vn -0.9569 -0.2903 -0.0000
vn 0.6344 0.7730 0.0000
vn -0.8819 -0.4714 -0.0000
vn 0.4714 0.8819 0.0000
vn -0.7730 -0.6344 -0.0000
vn 0.2903 0.9569 0.0000
vn -0.6344 -0.7730 -0.0000
vn 0.0980 0.9952 0.0000
vn -0.4714 -0.8819 -0.0000
vn -0.0000 0.0000 1.0000
usemtl None
s off
f 40//1 64//1 65//1 41//1
f 8//2 32//2 33//2 9//2
f 22//3 46//3 47//3 23//3
f 9//4 33//4 34//4 10//4
f 23//5 47//5 48//5 24//5
f 10//6 34//6 35//6 11//6
f 11//7 35//7 36//7 12//7
f 12//8 36//8 37//8 13//8
f 13//9 37//9 38//9 14//9
f 14//10 38//10 39//10 15//10
f 1//11 25//11 26//11 2//11
f 15//12 39//12 40//12 16//12
f 2//13 26//13 27//13 3//13
f 16//14 40//14 41//14 17//14
f 3//15 27//15 28//15 4//15
f 17//16 41//16 42//16 18//16
f 4//17 28//17 29//17 5//17
f 18//18 42//18 43//18 19//18
f 5//19 29//19 30//19 6//19
f 19//20 43//20 44//20 20//20
f 6//21 30//21 31//21 7//21
f 20//22 44//22 45//22 21//22
f 7//23 31//23 32//23 8//23
f 21//24 45//24 46//24 22//24
f 67//20 91//20 92//20 68//20
f 27//1 51//1 52//1 28//1
f 41//1 65//1 66//1 42//1
f 28//1 52//1 53//1 29//1
f 42//1 66//1 67//1 43//1
f 29//1 53//1 54//1 30//1
f 43//1 67//1 68//1 44//1
f 30//1 54//1 55//1 31//1
f 44//1 68//1 69//1 45//1
f 31//1 55//1 56//1 32//1
f 45//1 69//1 70//1 46//1
f 32//1 56//1 57//1 33//1
f 46//1 70//1 71//1 47//1
f 33//1 57//1 58//1 34//1
f 47//1 71//1 72//1 48//1
f 34//1 58//1 59//1 35//1
f 35//1 59//1 60//1 36//1
f 36//1 60//1 61//1 37//1
f 37//1 61//1 62//1 38//1
f 38//1 62//1 63//1 39//1
f 25//1 49//1 50//1 26//1
f 39//1 63//1 64//1 40//1
f 26//1 50//1 51//1 27//1
f 94//25 118//25 119//25 95//25
f 54//21 78//21 79//21 55//21
f 68//22 92//22 93//22 69//22
f 55//23 79//23 80//23 56//23
f 69//24 93//24 94//24 70//24
f 56//2 80//2 81//2 57//2
f 70//3 94//3 95//3 71//3
f 57//4 81//4 82//4 58//4
f 71//5 95//5 96//5 72//5
f 58//6 82//6 83//6 59//6
f 59//7 83//7 84//7 60//7
f 60//8 84//8 85//8 61//8
f 61//9 85//9 86//9 62//9
f 62//10 86//10 87//10 63//10
f 49//11 73//11 74//11 50//11
f 63//12 87//12 88//12 64//12
f 50//13 74//13 75//13 51//13
f 64//14 88//14 89//14 65//14
f 51//15 75//15 76//15 52//15
f 65//16 89//16 90//16 66//16
f 52//17 76//17 77//17 53//17
f 66//18 90//18 91//18 67//18
f 53//19 77//19 78//19 54//19
f 81//25 105//25 106//25 82//25
f 95//25 119//25 120//25 96//25
f 82//25 106//25 107//25 83//25
f 83//25 107//25 108//25 84//25
f 84//25 108//25 109//25 85//25
f 85//25 109//25 110//25 86//25
f 86//25 110//25 111//25 87//25
f 73//25 97//25 98//25 74//25
f 87//25 111//25 112//25 88//25
f 74//25 98//25 99//25 75//25
f 88//25 112//25 113//25 89//25
f 75//25 99//25 100//25 76//25
f 89//25 113//25 114//25 90//25
f 76//25 100//25 101//25 77//25
f 90//25 114//25 115//25 91//25
f 77//25 101//25 102//25 78//25
f 91//25 115//25 116//25 92//25
f 78//25 102//25 103//25 79//25
f 92//25 116//25 117//25 93//25
f 79//25 103//25 104//25 80//25
f 93//25 117//25 118//25 94//25
f 80//25 104//25 105//25 81//25
f 229//9 230//9 110//9 109//9
f 230//10 231//10 111//10 110//10
f 217//11 218//11 98//11 97//11
f 231//12 232//12 112//12 111//12
f 218//13 219//13 99//13 98//13
f 232//14 233//14 113//14 112//14
f 219//15 220//15 100//15 99//15
f 233//16 234//16 114//16 113//16
f 220//17 221//17 101//17 100//17
f 234//18 235//18 115//18 114//18
f 221//19 222//19 102//19 101//19
f 235//20 236//20 116//20 115//20
f 222//21 223//21 103//21 102//21
f 236//22 237//22 117//22 116//22
f 223//23 224//23 104//23 103//23
f 237//24 238//24 118//24 117//24
f 224//2 225//2 105//2 104//2
f 238//3 239//3 119//3 118//3
f 225//4 226//4 106//4 105//4
f 239//5 240//5 120//5 119//5
f 226//6 227//6 107//6 106//6
f 227//7 228//7 108//7 107//7
f 228//8 229//8 109//8 108//8
f 160//25 161//25 185//25 184//25
f 128//2 129//2 153//2 152//2
f 142//3 143//3 167//3 166//3
f 129//4 130//4 154//4 153//4
f 143//5 144//5 168//5 167//5
f 130//6 131//6 155//6 154//6
f 131//7 132//7 156//7 155//7
f 132//8 133//8 157//8 156//8
f 133//9 134//9 158//9 157//9
f 134//10 135//10 159//10 158//10
f 121//11 122//11 146//11 145//11
f 135//12 136//12 160//12 159//12
f 122//13 123//13 147//13 146//13
f 136//14 137//14 161//14 160//14
f 123//15 124//15 148//15 147//15
f 137//16 138//16 162//16 161//16
f 124//17 125//17 149//17 148//17
f 138//18 139//18 163//18 162//18
f 125//19 126//19 150//19 149//19
f 139//20 140//20 164//20 163//20
f 126//21 127//21 151//21 150//21
f 140//22 141//22 165//22 164//22
f 127//23 128//23 152//23 151//23
f 141//24 142//24 166//24 165//24
f 187//20 188//20 212//20 211//20
f 147//25 148//25 172//25 171//25
f 161//25 162//25 186//25 185//25
f 148//25 149//25 173//25 172//25
f 162//25 163//25 187//25 186//25
f 149//25 150//25 174//25 173//25
f 163//25 164//25 188//25 187//25
f 150//25 151//25 175//25 174//25
f 164//25 165//25 189//25 188//25
f 151//25 152//25 176//25 175//25
f 165//25 166//25 190//25 189//25
f 152//25 153//25 177//25 176//25
f 166//25 167//25 191//25 190//25
f 153//25 154//25 178//25 177//25
f 167//25 168//25 192//25 191//25
f 154//25 155//25 179//25 178//25
f 155//25 156//25 180//25 179//25
f 156//25 157//25 181//25 180//25
f 157//25 158//25 182//25 181//25
f 158//25 159//25 183//25 182//25
f 145//25 146//25 170//25 169//25
f 159//25 160//25 184//25 183//25
f 146//25 147//25 171//25 170//25
f 214//1 215//1 239//1 238//1
f 174//21 175//21 199//21 198//21
f 188//22 189//22 213//22 212//22
f 175//23 176//23 200//23 199//23
f 189//24 190//24 214//24 213//24
f 176//2 177//2 201//2 200//2
f 190//3 191//3 215//3 214//3
f 177//4 178//4 202//4 201//4
f 191//5 192//5 216//5 215//5
f 178//6 179//6 203//6 202//6
f 179//7 180//7 204//7 203//7
f 180//8 181//8 205//8 204//8
f 181//9 182//9 206//9 205//9
f 182//10 183//10 207//10 206//10
f 169//11 170//11 194//11 193//11
f 183//12 184//12 208//12 207//12
f 170//13 171//13 195//13 194//13
f 184//14 185//14 209//14 208//14
f 171//15 172//15 196//15 195//15
f 185//16 186//16 210//16 209//16
f 172//17 173//17 197//17 196//17
f 186//18 187//18 211//18 210//18
f 173//19 174//19 198//19 197//19
f 201//1 202//1 226//1 225//1
f 215//1 216//1 240//1 239//1
f 202//1 203//1 227//1 226//1
f 203//1 204//1 228//1 227//1
f 204//1 205//1 229//1 228//1
f 205//1 206//1 230//1 229//1
f 206//1 207//1 231//1 230//1
f 193//1 194//1 218//1 217//1
f 207//1 208//1 232//1 231//1
f 194//1 195//1 219//1 218//1
f 2//25 3//25 4//25 5//25 6//25 7//25 8//25 9//25 10//25 11//25 12//25 13//25 14//25 15//25 16//25 17//25 18//25 19//25 20//25 21//25 22//25 23//25 24//25 1//25
f 208//1 209//1 233//1 232//1
f 195//1 196//1 220//1 219//1
f 122//1 121//1 144//1 143//1 142//1 141//1 140//1 139//1 138//1 137//1 136//1 135//1 134//1 133//1 132//1 131//1 130//1 129//1 128//1 127//1 126//1 125//1 124//1 123//1
f 209//1 210//1 234//1 233//1
f 196//1 197//1 221//1 220//1
f 210//1 211//1 235//1 234//1
f 197//1 198//1 222//1 221//1
f 211//1 212//1 236//1 235//1
f 198//1 199//1 223//1 222//1
f 212//1 213//1 237//1 236//1
f 199//1 200//1 224//1 223//1
f 213//1 214//1 238//1 237//1
f 200//1 201//1 225//1 224//1
