# Blender v2.79 (sub 0) OBJ File: 'cockpit.blend'
# www.blender.org
mtllib ThrottleHandle.mtl
o Throttle_handle_Cube.001
v -0.518627 -1.707665 -1.994088
v -0.518627 -0.923932 -1.994088
v -0.431914 -1.707665 -1.994088
v -0.431914 -0.923932 -1.994088
v -0.518627 -1.707665 -1.907375
v -0.518627 -0.923932 -1.907375
v -0.431915 -1.707665 -1.907375
v -0.431915 -0.923932 -1.907375
v -0.350337 -0.903467 -1.639022
v -0.352673 -0.927183 -1.639022
v -0.359591 -0.949988 -1.639022
v -0.370825 -0.971005 -1.639022
v -0.385943 -0.989427 -1.639022
v -0.404365 -1.004545 -1.639022
v -0.425382 -1.015779 -1.639023
v -0.448187 -1.022697 -1.639023
v -0.471903 -1.025033 -1.639023
v -0.495620 -1.022697 -1.639023
v -0.518425 -1.015779 -1.639023
v -0.539442 -1.004545 -1.639024
v -0.557863 -0.989427 -1.639024
v -0.572982 -0.971005 -1.639024
v -0.584216 -0.949988 -1.639024
v -0.591134 -0.927183 -1.639024
v -0.593469 -0.903467 -1.639024
v -0.591134 -0.879750 -1.639024
v -0.584216 -0.856945 -1.639024
v -0.572982 -0.835928 -1.639024
v -0.557863 -0.817506 -1.639024
v -0.539442 -0.802388 -1.639024
v -0.518424 -0.791154 -1.639023
v -0.495619 -0.784236 -1.639023
v -0.471903 -0.781900 -1.639023
v -0.448187 -0.784236 -1.639023
v -0.425382 -0.791154 -1.639023
v -0.404364 -0.802388 -1.639022
v -0.385943 -0.817506 -1.639022
v -0.370824 -0.835928 -1.639022
v -0.359591 -0.856945 -1.639022
v -0.352673 -0.879750 -1.639022
v -0.518623 -1.707665 -2.431997
v -0.518623 -0.923932 -2.431997
v -0.431911 -1.707665 -2.431996
v -0.431911 -0.923932 -2.431996
v -0.518623 -1.707665 -2.518709
v -0.518623 -0.923932 -2.518709
v -0.431910 -1.707665 -2.518709
v -0.431910 -0.923932 -2.518709
v -0.350329 -0.903467 -2.787060
v -0.352664 -0.927183 -2.787060
v -0.359582 -0.949988 -2.787060
v -0.370816 -0.971005 -2.787061
v -0.385934 -0.989427 -2.787061
v -0.404356 -1.004545 -2.787061
v -0.425373 -1.015779 -2.787061
v -0.448178 -1.022697 -2.787061
v -0.471895 -1.025033 -2.787061
v -0.495611 -1.022697 -2.787061
v -0.518416 -1.015779 -2.787062
v -0.539433 -1.004545 -2.787062
v -0.557855 -0.989427 -2.787062
v -0.572973 -0.971005 -2.787062
v -0.584207 -0.949988 -2.787062
v -0.591125 -0.927183 -2.787062
v -0.593461 -0.903467 -2.787062
v -0.591125 -0.879750 -2.787062
v -0.584207 -0.856945 -2.787062
v -0.572973 -0.835928 -2.787062
v -0.557855 -0.817506 -2.787062
v -0.539433 -0.802388 -2.787062
v -0.518416 -0.791154 -2.787062
v -0.495611 -0.784236 -2.787061
v -0.471895 -0.781901 -2.787061
v -0.448178 -0.784236 -2.787061
v -0.425373 -0.791154 -2.787061
v -0.404356 -0.802388 -2.787061
v -0.385934 -0.817507 -2.787061
v -0.370816 -0.835928 -2.787061
v -0.359582 -0.856946 -2.787060
v -0.352664 -0.879750 -2.787060
vn 0.0000 0.0000 -1.0000
vn 1.0000 0.0000 0.0000
vn -0.0000 0.0000 1.0000
vn -1.0000 0.0000 -0.0000
vn 0.9569 -0.2903 0.0000
vn 0.8819 -0.4714 0.0000
vn 0.7730 -0.6344 0.0000
vn 0.6344 -0.7730 0.0000
vn 0.4714 -0.8819 0.0000
vn 0.2903 -0.9569 0.0000
vn 0.0980 -0.9952 0.0000
vn -0.0980 -0.9952 -0.0000
vn -0.2903 -0.9569 -0.0000
vn -0.4714 -0.8819 -0.0000
vn -0.6344 -0.7730 -0.0000
vn -0.7730 -0.6344 -0.0000
vn -0.8819 -0.4714 -0.0000
vn -0.9569 -0.2903 -0.0000
vn -0.9952 -0.0980 -0.0000
vn -0.9952 0.0980 -0.0000
vn -0.9569 0.2903 -0.0000
vn -0.8819 0.4714 -0.0000
vn -0.7730 0.6344 -0.0000
vn -0.6344 0.7730 -0.0000
vn -0.4714 0.8819 -0.0000
vn -0.2903 0.9569 -0.0000
vn -0.0980 0.9952 -0.0000
vn 0.0980 0.9952 0.0000
vn 0.2903 0.9569 0.0000
vn 0.4714 0.8819 0.0000
vn 0.6344 0.7730 0.0000
vn 0.7730 0.6344 0.0000
vn 0.8819 0.4714 0.0000
vn 0.9569 0.2903 0.0000
vn 0.9952 0.0980 0.0000
vn 0.9952 -0.0980 0.0000
usemtl None
s off
f 1//1 2//1 4//1 3//1
f 3//2 4//2 8//2 7//2
f 7//3 8//3 6//3 5//3
f 5//4 6//4 2//4 1//4
f 11//5 51//5 50//5 10//5
f 12//6 52//6 51//6 11//6
f 13//7 53//7 52//7 12//7
f 14//8 54//8 53//8 13//8
f 15//9 55//9 54//9 14//9
f 16//10 56//10 55//10 15//10
f 17//11 57//11 56//11 16//11
f 18//12 58//12 57//12 17//12
f 19//13 59//13 58//13 18//13
f 20//14 60//14 59//14 19//14
f 21//15 61//15 60//15 20//15
f 22//16 62//16 61//16 21//16
f 23//17 63//17 62//17 22//17
f 24//18 64//18 63//18 23//18
f 25//19 65//19 64//19 24//19
f 26//20 66//20 65//20 25//20
f 27//21 67//21 66//21 26//21
f 28//22 68//22 67//22 27//22
f 29//23 69//23 68//23 28//23
f 30//24 70//24 69//24 29//24
f 31//25 71//25 70//25 30//25
f 32//26 72//26 71//26 31//26
f 33//27 73//27 72//27 32//27
f 34//28 74//28 73//28 33//28
f 35//29 75//29 74//29 34//29
f 36//30 76//30 75//30 35//30
f 37//31 77//31 76//31 36//31
f 38//32 78//32 77//32 37//32
f 39//33 79//33 78//33 38//33
f 40//34 80//34 79//34 39//34
f 10//3 9//3 40//3 39//3 38//3 37//3 36//3 35//3 34//3 33//3 32//3 31//3 30//3 29//3 28//3 27//3 26//3 25//3 24//3 23//3 22//3 21//3 20//3 19//3 18//3 17//3 16//3 15//3 14//3 13//3 12//3 11//3
f 9//35 49//35 80//35 40//35
f 41//3 43//3 44//3 42//3
f 43//2 47//2 48//2 44//2
f 47//1 45//1 46//1 48//1
f 45//4 41//4 42//4 46//4
f 50//1 51//1 52//1 53//1 54//1 55//1 56//1 57//1 58//1 59//1 60//1 61//1 62//1 63//1 64//1 65//1 66//1 67//1 68//1 69//1 70//1 71//1 72//1 73//1 74//1 75//1 76//1 77//1 78//1 79//1 80//1 49//1
f 10//36 50//36 49//36 9//36
